<svg width="60" height="60" viewBox="0 0 60 60" fill="none" xmlns="http://www.w3.org/2000/svg">
<rect width="60" height="60" rx="20" fill="#17A700" fill-opacity="0.3"/>
<path d="M27.375 23.25H21.75C21.3522 23.25 20.9706 23.408 20.6893 23.6893C20.408 23.9706 20.25 24.3522 20.25 24.75V30.75C20.25 31.1478 20.408 31.5294 20.6893 31.8107C20.9706 32.092 21.3522 32.25 21.75 32.25H27.375V33C27.375 33.7956 27.0589 34.5587 26.4963 35.1213C25.9337 35.6839 25.1706 36 24.375 36C24.1761 36 23.9853 36.079 23.8447 36.2197C23.704 36.3603 23.625 36.5511 23.625 36.75C23.625 36.9489 23.704 37.1397 23.8447 37.2803C23.9853 37.421 24.1761 37.5 24.375 37.5C25.5681 37.4988 26.712 37.0243 27.5556 36.1806C28.3993 35.337 28.8738 34.1931 28.875 33V24.75C28.875 24.3522 28.717 23.9706 28.4357 23.6893C28.1544 23.408 27.7728 23.25 27.375 23.25ZM27.375 30.75H21.75V24.75H27.375V30.75ZM38.25 23.25H32.625C32.2272 23.25 31.8456 23.408 31.5643 23.6893C31.283 23.9706 31.125 24.3522 31.125 24.75V30.75C31.125 31.1478 31.283 31.5294 31.5643 31.8107C31.8456 32.092 32.2272 32.25 32.625 32.25H38.25V33C38.25 33.7956 37.9339 34.5587 37.3713 35.1213C36.8087 35.6839 36.0456 36 35.25 36C35.0511 36 34.8603 36.079 34.7197 36.2197C34.579 36.3603 34.5 36.5511 34.5 36.75C34.5 36.9489 34.579 37.1397 34.7197 37.2803C34.8603 37.421 35.0511 37.5 35.25 37.5C36.4431 37.4988 37.587 37.0243 38.4306 36.1806C39.2743 35.337 39.7488 34.1931 39.75 33V24.75C39.75 24.3522 39.592 23.9706 39.3107 23.6893C39.0294 23.408 38.6478 23.25 38.25 23.25ZM38.25 30.75H32.625V24.75H38.25V30.75Z" fill="url(#paint0_linear_1_174)"/>
<defs>
<linearGradient id="paint0_linear_1_174" x1="33.907" y1="25.5349" x2="12.9767" y2="43.6744" gradientUnits="userSpaceOnUse">
<stop stop-color="#17A700"/>
<stop offset="1" stop-color="#E8178A"/>
</linearGradient>
</defs>
</svg>
