<svg width="28" height="29" viewBox="0 0 28 29" fill="none" xmlns="http://www.w3.org/2000/svg">
<path fill-rule="evenodd" clip-rule="evenodd" d="M14.0013 17.8453L20.906 24.9147C21.5987 25.6293 22.0493 25.6367 22.7547 24.9147L24.14 23.496C24.8187 22.8013 24.8647 22.3453 24.14 21.6033L16.83 14.12L24.1407 6.63667C24.8253 5.93334 24.8387 5.45867 24.1407 4.74334L22.7553 3.32534C22.0367 2.58934 21.5927 2.62334 20.9067 3.32534L14.0013 10.3947L7.09667 3.326C6.41067 2.624 5.96667 2.59 5.248 3.326L3.86267 4.744C3.164 5.45934 3.17667 5.934 3.86267 6.63734L11.1727 14.12L3.86267 21.6033C3.138 22.3453 3.17667 22.8013 3.86267 23.496L5.24733 24.9147C5.94667 25.6367 6.39733 25.6293 7.096 24.9147L14.0013 17.8453Z" fill="#FF6363"/>
</svg>
