<svg width="37" height="38" viewBox="0 0 37 38" fill="none" xmlns="http://www.w3.org/2000/svg">
<path d="M11.1837 31.7714L14.6354 25.7928H21.5389L24.9906 31.7714L21.5389 37.75H14.6354L11.1837 31.7714Z" fill="#17A700"/>
<path d="M22.2294 25.4202L25.6811 19.4417H32.5846L36.0363 25.4202L32.5846 31.3988H25.6811L22.2294 25.4202Z" fill="#17A700"/>
<path d="M22.2294 12.7178L25.6811 6.73926H32.5846L36.0363 12.7178L32.5846 18.6964H25.6811L22.2294 12.7178Z" fill="#17A700"/>
<path d="M11.1837 6.22857L14.6354 0.249985H21.5389L24.9906 6.22857L21.5389 12.2071H14.6354L11.1837 6.22857Z" fill="#17A700"/>
<path d="M6.10352e-05 12.8559L3.4518 6.87733H10.3553L13.807 12.8559L10.3553 18.8345H3.4518L6.10352e-05 12.8559Z" fill="#17A700"/>
<path d="M0.13834 25.6963L3.59008 19.7178H10.4935L13.9453 25.6963L10.4935 31.6749H3.59008L0.13834 25.6963Z" fill="#17A700"/>
<path d="M11.1837 19.069L14.6354 13.0904H21.5389L24.9906 19.069L21.5389 25.0476H14.6354L11.1837 19.069Z" fill="#17A700"/>
</svg>
