<svg width="20" height="20" viewBox="0 0 20 20" fill="none" xmlns="http://www.w3.org/2000/svg">
<path d="M15.463 20C15.2254 20 14.9889 19.9238 14.7854 19.7719L10.0001 16.1847L5.21484 19.7719C5.01658 19.921 4.77832 20.0008 4.53408 19.9999C4.28985 19.999 4.05212 19.9175 3.85485 19.767C3.65739 19.6173 3.51012 19.4064 3.43397 19.1642C3.35783 18.922 3.35669 18.6608 3.43073 18.4179L5.21543 12.397L0.473096 8.90393C0.276556 8.75231 0.130595 8.53994 0.0558567 8.29686C-0.0188811 8.05377 -0.0186117 7.79228 0.0566269 7.54936C0.132459 7.30703 0.27923 7.09574 0.476196 6.94535C0.673161 6.79496 0.910361 6.71308 1.15427 6.71128L7.02778 6.70206L8.89777 0.8306C8.97494 0.588723 9.12296 0.378354 9.32085 0.229284C9.51875 0.0802147 9.75649 0 10.0004 0C10.2443 0 10.4821 0.0802147 10.68 0.229284C10.8779 0.378354 11.0259 0.588723 11.1031 0.8306L12.9413 6.70206L18.8448 6.71128C19.089 6.71272 19.3266 6.79456 19.5237 6.94518C19.7209 7.09579 19.8676 7.30752 19.9431 7.55028C20.0186 7.79304 20.019 8.0545 19.9442 8.2975C19.8694 8.5405 19.7233 8.75269 19.5266 8.90393L14.7842 12.397L16.5689 18.4179C16.6431 18.6608 16.6421 18.9219 16.5661 19.1641C16.49 19.4063 16.3428 19.6173 16.1454 19.767C15.9475 19.9187 15.7084 20.0003 15.463 20Z" fill="#FFAC33"/>
</svg>
