<svg width="30" height="39" viewBox="0 0 30 39" fill="none" xmlns="http://www.w3.org/2000/svg">
<path d="M28.9599 14.3413C28.9599 13.8506 29.1935 13.2817 29.4416 12.6799C29.8166 11.7715 30.2033 10.8319 29.8757 9.90748C29.5356 8.94481 28.5558 8.35903 27.6914 7.84259C27.1235 7.50303 26.5867 7.18303 26.295 6.81414C25.9965 6.43814 25.8269 5.8657 25.6466 5.25859C25.3782 4.35192 25.0739 3.32436 24.193 2.73592C23.3208 2.15459 22.2161 2.20259 21.1491 2.24792C20.4591 2.27814 19.8069 2.30659 19.3146 2.15903C18.8563 2.02303 18.3669 1.65948 17.8474 1.27548C17.0392 0.676364 16.1234 -0.00274658 15.0003 -0.00274658C13.8761 -0.00274658 12.9603 0.676364 12.1512 1.27548C11.6327 1.66036 11.1433 2.02303 10.6849 2.15992C10.1926 2.30659 9.54141 2.27814 8.85045 2.24881C7.78251 2.20259 6.67873 2.15459 5.80655 2.73681C4.92565 3.32348 4.62136 4.35192 4.35292 5.25948C4.17267 5.8657 4.00405 6.43814 3.7046 6.81503C3.41291 7.18303 2.87603 7.50303 2.30912 7.84259C1.44372 8.35903 0.463978 8.94481 0.123828 9.90748C-0.203723 10.8319 0.182943 11.7715 0.557979 12.6808C0.805096 13.2817 1.03961 13.8506 1.03961 14.3413C1.03961 14.8319 0.805096 15.4008 0.557979 16.0026C0.182943 16.911 -0.203723 17.8506 0.122859 18.775C0.463978 19.7377 1.44372 20.3235 2.30815 20.8399C2.87603 21.1795 3.41291 21.4995 3.7046 21.8684C4.00308 22.2444 4.17267 22.8168 4.35292 23.4239C4.62136 24.3306 4.92565 25.3581 5.80655 25.9457C6.67873 26.5279 7.78348 26.4799 8.85045 26.4346C9.54044 26.4044 10.1917 26.3759 10.6849 26.5235C11.1433 26.6595 11.6327 27.0221 12.1521 27.407C12.5427 27.6968 12.9584 28.0044 13.411 28.2453L10.7305 37.063L8.25737 34.5341C8.16837 34.4434 8.05299 34.3777 7.92477 34.345C7.79655 34.3122 7.6608 34.3137 7.53346 34.3493L3.99242 35.3395L6.71168 25.9795C6.76141 25.8156 6.73814 25.6404 6.647 25.4923C6.55586 25.3442 6.40431 25.2353 6.22568 25.1897C6.04705 25.1441 5.85598 25.1654 5.69451 25.249C5.53303 25.3326 5.41438 25.4716 5.36465 25.6355L2.30427 36.1208C2.27045 36.2316 2.26974 36.3486 2.30222 36.4597C2.3347 36.5708 2.39916 36.6718 2.48885 36.7521C2.57855 36.8325 2.69016 36.8892 2.812 36.9164C2.93383 36.9436 3.06139 36.9402 3.18129 36.9066L7.51602 35.695L10.5425 38.7884C10.626 38.8741 10.7332 38.9376 10.8527 38.9723C10.9723 39.0069 11.0998 39.0114 11.2219 38.9854C11.3439 38.9593 11.4561 38.9035 11.5467 38.824C11.6372 38.7444 11.7027 38.644 11.7364 38.5333L14.7328 28.671C14.821 28.679 14.9101 28.6853 15.0003 28.6853C15.0914 28.6853 15.1795 28.679 15.2677 28.671L18.2661 38.5333C18.2996 38.6441 18.3651 38.7446 18.4555 38.8242C18.546 38.9039 18.6582 38.9597 18.7803 38.9859C18.9024 39.0121 19.03 39.0077 19.1495 38.9731C19.2691 38.9385 19.3764 38.875 19.46 38.7893L22.4855 35.695L26.8202 36.9066C26.9401 36.9402 27.0677 36.9436 27.1895 36.9164C27.3113 36.8892 27.423 36.8325 27.5126 36.7521C27.6023 36.6718 27.6668 36.5708 27.6993 36.4597C27.7318 36.3486 27.7311 36.2316 27.6972 36.1208L24.5235 25.6799C25.1563 25.0781 25.415 24.2061 25.6476 23.423C25.8269 22.8168 25.9965 22.2435 26.295 21.8675C26.5876 21.4995 27.1235 21.1786 27.6914 20.8399C28.5558 20.3235 29.5356 19.7377 29.8767 18.7741C30.2043 17.8497 29.8166 16.9101 29.4426 16.0017C29.1945 15.3999 28.9609 14.8319 28.9609 14.3413H28.9599ZM26.0062 35.3395L22.4642 34.3493C22.3368 34.3136 22.2011 34.3121 22.0728 34.3448C21.9446 34.3776 21.8292 34.4433 21.7403 34.5341L19.2691 37.0621L16.5876 28.2453C17.0402 28.0044 17.4559 27.6968 17.8465 27.407C18.3649 27.0221 18.8553 26.6586 19.3137 26.5226C19.8069 26.3759 20.4572 26.4035 21.1481 26.4337C21.8653 26.4648 22.6008 26.4959 23.2704 26.3359L26.0062 35.3395ZM28.5452 18.3795C28.3572 18.911 27.6623 19.3261 26.9268 19.7661C26.2775 20.1537 25.6069 20.5546 25.1631 21.1137C24.7134 21.6799 24.5012 22.3955 24.2967 23.087C24.068 23.8586 23.8529 24.5866 23.3693 24.9093C22.8944 25.2257 22.0785 25.1901 21.214 25.1528C20.4291 25.119 19.617 25.0844 18.8824 25.303C18.1779 25.5128 17.5625 25.9688 16.9675 26.4097C16.2795 26.9208 15.6282 27.4026 14.9983 27.4026C14.3684 27.4026 13.7191 26.9208 13.0301 26.4097C12.4351 25.9688 11.8188 25.5119 11.1152 25.303C10.652 25.1653 10.1577 25.1279 9.65867 25.1279C9.36794 25.1279 9.07334 25.1404 8.78358 25.1528C7.91916 25.1901 7.10222 25.2257 6.62833 24.9093C6.14476 24.5866 5.92962 23.8586 5.70092 23.087C5.49644 22.3955 5.28421 21.6799 4.83456 21.1137C4.39071 20.5537 3.72011 20.1537 3.07082 19.7653C2.33431 19.3261 1.64045 18.911 1.45245 18.3786C1.27607 17.8826 1.56195 17.1893 1.86431 16.455C2.14534 15.7724 2.43607 15.0666 2.43607 14.3413C2.43607 13.6159 2.14534 12.9101 1.86431 12.2275C1.56195 11.4933 1.27607 10.7999 1.45245 10.3039C1.64045 9.77148 2.33528 9.35636 3.07082 8.91725C3.72011 8.5297 4.39071 8.12881 4.83456 7.5697C5.28421 7.00259 5.49644 6.28703 5.70092 5.59636C5.92962 4.82481 6.14476 4.09592 6.62833 3.77414C7.10319 3.45681 7.91916 3.49236 8.78358 3.5297C9.56854 3.56348 10.3806 3.59903 11.1152 3.37948C11.8197 3.1697 12.4351 2.7137 13.0301 2.27281C13.7182 1.7617 14.3694 1.27992 14.9993 1.27992C15.6292 1.27992 16.2785 1.7617 16.9675 2.27281C17.5625 2.7137 18.1779 3.17059 18.8824 3.37948C19.618 3.59814 20.4291 3.56348 21.214 3.5297C22.0785 3.49236 22.8954 3.45681 23.3693 3.77325C23.8519 4.09592 24.068 4.82392 24.2967 5.59548C24.5012 6.28703 24.7134 7.00259 25.1631 7.56881C25.6069 8.12881 26.2775 8.52881 26.9268 8.91725C27.6623 9.35636 28.3572 9.77148 28.5452 10.3039C28.7216 10.7999 28.4357 11.4933 28.1333 12.2266C27.8523 12.9101 27.5616 13.6159 27.5616 14.3413C27.5616 15.0666 27.8523 15.7724 28.1333 16.455C28.4357 17.1893 28.7216 17.8835 28.5452 18.3795ZM11.498 12.415C11.59 12.4157 11.678 12.4498 11.7428 12.5097C11.8076 12.5696 11.844 12.6506 11.844 12.735V18.4941C11.844 18.671 11.6889 18.8141 11.498 18.8141H10.1132C10.0211 18.8137 9.93293 18.7797 9.86807 18.7197C9.80322 18.6597 9.76694 18.5786 9.7672 18.4941V12.7341C9.7672 12.5581 9.92226 12.4141 10.1132 12.4141L11.498 12.415ZM15.7552 9.46748C16.0101 9.40881 16.3269 9.46481 16.5527 9.57592C17.2485 9.91725 17.4114 10.8781 17.1604 11.5084L16.797 12.4195C16.797 12.4195 19.398 12.4106 19.4542 12.4195C20.3738 12.5617 20.6365 13.7093 19.8496 14.1724C19.9772 14.3848 20.0126 14.6337 19.9486 14.8691C19.8846 15.1045 19.726 15.309 19.5046 15.4417C19.6319 15.6541 19.6671 15.9028 19.6032 16.138C19.5392 16.3731 19.3808 16.5775 19.1596 16.7101C19.5424 17.3324 19.0336 18.1288 18.2583 18.1288H12.5068V13.0533C12.5068 13.0533 14.1707 11.6684 14.7066 11.1875C15.0138 10.9119 15.2125 10.5457 15.292 10.1599C15.323 10.007 15.3143 9.84703 15.4024 9.71014C15.48 9.5897 15.6075 9.50243 15.7552 9.46748Z" fill="#17A700"/>
</svg>
