<svg width="128" height="90" viewBox="0 0 128 90" fill="none" xmlns="http://www.w3.org/2000/svg">
<path d="M125.173 14.0375C124.439 11.3243 123.007 8.85072 121.019 6.86314C119.032 4.87556 116.558 3.44331 113.845 2.709C103.912 0 63.9351 0 63.9351 0C63.9351 0 23.9561 0.0819998 14.0231 2.791C11.3098 3.52535 8.83631 4.95768 6.84881 6.94535C4.86132 8.93303 3.42921 11.4067 2.6951 14.12C-0.309404 31.769 -1.4749 58.662 2.7776 75.605C3.51178 78.3182 4.94393 80.7918 6.93142 82.7794C8.91891 84.7669 11.3924 86.1992 14.1056 86.9335C24.0386 89.6425 64.0166 89.6425 64.0166 89.6425C64.0166 89.6425 103.994 89.6425 113.927 86.9335C116.64 86.1993 119.113 84.7671 121.101 82.7795C123.089 80.7919 124.521 78.3183 125.255 75.605C128.424 57.931 129.401 31.0545 125.173 14.0375Z" fill="#FF0000"/>
</svg>
